<svg xmlns="http://www.w3.org/2000/svg" viewBox="0 0 400 300" fill="none">
  <rect width="400" height="300" fill="#1a1a2e"/>
  <rect x="20" y="20" width="360" height="260" rx="8" fill="#16213e" stroke="#0f3460" stroke-width="2"/>
  <path d="M120 80c20-10 40-10 60 0s40 10 60 0 40-10 60 0" stroke="#4a90d9" stroke-width="2" opacity="0.6"/>
  <path d="M100 120c30 20 60 20 90 0s60-20 90 0 60 20 90 0" stroke="#4a90d9" stroke-width="2" opacity="0.5"/>
  <path d="M80 160c40 30 80 30 120 0s80-30 120 0 80 30 120 0" stroke="#4a90d9" stroke-width="2" opacity="0.4"/>
  <circle cx="200" cy="150" r="40" stroke="#4a90d9" stroke-width="1.5" opacity="0.3" fill="none"/>
  <text x="200" y="240" text-anchor="middle" fill="#6c757d" font-family="system-ui,sans-serif" font-size="16">No X-Ray Available</text>
</svg>
